<svg width="40" height="40" viewBox="0 0 40 40" fill="none" xmlns="http://www.w3.org/2000/svg">
<path d="M20 39.375C9.29688 39.375 0.625 30.7031 0.625 20C0.625 9.29688 9.29688 0.625 20 0.625C30.7031 0.625 39.375 9.29688 39.375 20C39.375 30.7031 30.7031 39.375 20 39.375ZM11.1016 21.3281L21.6875 31.9141C22.4219 32.6484 23.6094 32.6484 24.3359 31.9141L25.6641 30.5859C26.3984 29.8516 26.3984 28.6641 25.6641 27.9375L17.7266 20L25.6641 12.0625C26.3984 11.3281 26.3984 10.1406 25.6641 9.41406L24.3359 8.08594C23.6016 7.35156 22.4141 7.35156 21.6875 8.08594L11.1016 18.6719C10.3672 19.4062 10.3672 20.5938 11.1016 21.3281Z" fill="#9F9F9F"/>
</svg>
